<svg t="1711683160477" class="icon" viewBox="0 0 1024 1024" version="1.1" xmlns="http://www.w3.org/2000/svg" p-id="1428" width="128" height="128"><path d="M725.344 85.344l-341.344 0c-70.56 0-128 57.44-128 128l0 597.344c0 21.92 4.448 40.352 13.152 54.816 24.064 39.904 77.44 43.008 120.032 0.352l135.328-135.328c16-15.968 44.32-15.968 60.32 0l135.328 135.328c20.96 20.96 42.752 31.584 64.864 31.584 34.016 0 68.32-26.848 68.32-86.752l0-597.344c0-70.56-57.44-128-128-128zM384 170.656l341.344 0c23.52 0 42.656 19.168 42.656 42.656l0 422.624-104.576-95.872c-60-55.008-157.568-54.944-217.568 0l-104.544 95.872 0-422.624c0-23.52 19.168-42.656 42.656-42.656zM645.152 670.176c-24.096-24.096-56.224-37.376-90.496-37.376s-66.4 13.312-90.496 37.376l-122.848 122.848 0-99.168 133.376-122.272c44.064-40.416 115.808-40.416 159.872 0l133.408 122.272 0 99.168-122.848-122.848z" p-id="1429" fill="#909399"></path></svg>